<?xml version="1.0" encoding="UTF-8"?><svg xmlns="http://www.w3.org/2000/svg" xmlns:xlink="http://www.w3.org/1999/xlink" fill-opacity="1" color-rendering="auto" color-interpolation="auto" text-rendering="auto" stroke="black" stroke-linecap="square" width="620" stroke-miterlimit="10" shape-rendering="auto" stroke-opacity="1" fill="black" stroke-dasharray="none" font-weight="normal" stroke-width="1" height="364" font-family="'Dialog'" font-style="normal" stroke-linejoin="miter" font-size="12px" stroke-dashoffset="0" image-rendering="auto">
  <!--Generated by ySVG 2.5-->
  <defs id="genericDefs"/>
  <g>
    <g fill="white" text-rendering="geometricPrecision" shape-rendering="geometricPrecision" transform="translate(-51,-53)" stroke="white">
      <rect x="51" width="620" height="364" y="53" clip-path="url(#clipPath2)" stroke="none"/>
    </g>
    <g fill="url(#linearGradient1)" text-rendering="geometricPrecision" shape-rendering="geometricPrecision" transform="matrix(1,0,0,1,-51,-53)" stroke="url(#linearGradient1)">
      <path d="M225 228.5 C215 214.5 225 202 241.4 211 C241.4 202 268.6 202 268.6 211 C285 202 295 214.5 285 225.5 C295 239.5 285 252 272.6 243 C268.6 252 241.4 252 245.4 243 C225 252 215 239.5 225 228.5 Z" stroke="none" clip-path="url(#clipPath2)"/>
    </g>
    <g text-rendering="geometricPrecision" stroke-miterlimit="1.45" shape-rendering="geometricPrecision" transform="matrix(1,0,0,1,-51,-53)" stroke-linecap="butt">
      <path fill="none" d="M225 228.5 C215 214.5 225 202 241.4 211 C241.4 202 268.6 202 268.6 211 C285 202 295 214.5 285 225.5 C295 239.5 285 252 272.6 243 C268.6 252 241.4 252 245.4 243 C225 252 215 239.5 225 228.5 Z" clip-path="url(#clipPath2)"/>
      <text x="242.7568" xml:space="preserve" y="231.5352" clip-path="url(#clipPath2)" font-family="sans-serif" stroke="none">WP2</text>
    </g>
    <g fill="url(#linearGradient2)" text-rendering="geometricPrecision" shape-rendering="geometricPrecision" transform="matrix(1,0,0,1,-51,-53)" stroke="url(#linearGradient2)">
      <path d="M366 308.5 C356 294.5 366 282 382.4 291 C382.4 282 409.6 282 409.6 291 C426 282 436 294.5 426 305.5 C436 319.5 426 332 413.6 323 C409.6 332 382.4 332 386.4 323 C366 332 356 319.5 366 308.5 Z" stroke="none" clip-path="url(#clipPath2)"/>
    </g>
    <g text-rendering="geometricPrecision" stroke-miterlimit="1.45" shape-rendering="geometricPrecision" transform="matrix(1,0,0,1,-51,-53)" stroke-linecap="butt">
      <path fill="none" d="M366 308.5 C356 294.5 366 282 382.4 291 C382.4 282 409.6 282 409.6 291 C426 282 436 294.5 426 305.5 C436 319.5 426 332 413.6 323 C409.6 332 382.4 332 386.4 323 C366 332 356 319.5 366 308.5 Z" clip-path="url(#clipPath2)"/>
      <text x="383.7568" xml:space="preserve" y="311.5352" clip-path="url(#clipPath2)" font-family="sans-serif" stroke="none">WP3</text>
    </g>
    <g fill="url(#linearGradient3)" text-rendering="geometricPrecision" shape-rendering="geometricPrecision" transform="matrix(1,0,0,1,-51,-53)" stroke="url(#linearGradient3)">
      <path d="M476 308.5 C466 294.5 476 282 492.4 291 C492.4 282 519.6 282 519.6 291 C536 282 546 294.5 536 305.5 C546 319.5 536 332 523.6 323 C519.6 332 492.4 332 496.4 323 C476 332 466 319.5 476 308.5 Z" stroke="none" clip-path="url(#clipPath2)"/>
    </g>
    <g text-rendering="geometricPrecision" stroke-miterlimit="1.45" shape-rendering="geometricPrecision" transform="matrix(1,0,0,1,-51,-53)" stroke-linecap="butt">
      <path fill="none" d="M476 308.5 C466 294.5 476 282 492.4 291 C492.4 282 519.6 282 519.6 291 C536 282 546 294.5 536 305.5 C546 319.5 536 332 523.6 323 C519.6 332 492.4 332 496.4 323 C476 332 466 319.5 476 308.5 Z" clip-path="url(#clipPath2)"/>
      <text x="493.7568" xml:space="preserve" y="311.5352" clip-path="url(#clipPath2)" font-family="sans-serif" stroke="none">WP4</text>
    </g>
    <g fill="url(#linearGradient4)" text-rendering="geometricPrecision" shape-rendering="geometricPrecision" transform="matrix(1,0,0,1,-51,-53)" stroke="url(#linearGradient4)">
      <path d="M586 308.5 C576 294.5 586 282 602.4 291 C602.4 282 629.6 282 629.6 291 C646 282 656 294.5 646 305.5 C656 319.5 646 332 633.6 323 C629.6 332 602.4 332 606.4 323 C586 332 576 319.5 586 308.5 Z" stroke="none" clip-path="url(#clipPath2)"/>
    </g>
    <g text-rendering="geometricPrecision" stroke-miterlimit="1.45" shape-rendering="geometricPrecision" transform="matrix(1,0,0,1,-51,-53)" stroke-linecap="butt">
      <path fill="none" d="M586 308.5 C576 294.5 586 282 602.4 291 C602.4 282 629.6 282 629.6 291 C646 282 656 294.5 646 305.5 C656 319.5 646 332 633.6 323 C629.6 332 602.4 332 606.4 323 C586 332 576 319.5 586 308.5 Z" clip-path="url(#clipPath2)"/>
      <text x="603.7568" xml:space="preserve" y="311.5352" clip-path="url(#clipPath2)" font-family="sans-serif" stroke="none">WP5</text>
    </g>
    <g fill="url(#linearGradient5)" text-rendering="geometricPrecision" shape-rendering="geometricPrecision" transform="matrix(1,0,0,1,-51,-53)" stroke="url(#linearGradient5)">
      <path d="M71 252 L151 252 Q161 272 151 292 L71 292 Q61 272 71 252 Z" stroke="none" clip-path="url(#clipPath2)"/>
    </g>
    <g text-rendering="geometricPrecision" stroke-miterlimit="1.45" shape-rendering="geometricPrecision" transform="matrix(1,0,0,1,-51,-53)" stroke-linecap="butt">
      <path fill="none" d="M71 252 L151 252 Q161 272 151 292 L71 292 Q61 272 71 252 Z" clip-path="url(#clipPath2)"/>
      <path fill="none" d="M151 252 Q141 272 151 292" clip-path="url(#clipPath2)"/>
      <text x="87.1113" xml:space="preserve" y="276.5352" clip-path="url(#clipPath2)" font-family="sans-serif" stroke="none">DBpedia</text>
    </g>
    <g fill="url(#linearGradient6)" text-rendering="geometricPrecision" shape-rendering="geometricPrecision" transform="matrix(1,0,0,1,-51,-53)" stroke="url(#linearGradient6)">
      <path d="M71 162 L151 162 Q161 182 151 202 L71 202 Q61 182 71 162 Z" stroke="none" clip-path="url(#clipPath2)"/>
    </g>
    <g text-rendering="geometricPrecision" stroke-miterlimit="1.45" shape-rendering="geometricPrecision" transform="matrix(1,0,0,1,-51,-53)" stroke-linecap="butt">
      <path fill="none" d="M71 162 L151 162 Q161 182 151 202 L71 202 Q61 182 71 162 Z" clip-path="url(#clipPath2)"/>
      <path fill="none" d="M151 162 Q141 182 151 202" clip-path="url(#clipPath2)"/>
      <text x="80.4141" xml:space="preserve" y="186.5352" clip-path="url(#clipPath2)" font-family="sans-serif" stroke="none">Europeana</text>
    </g>
    <g text-rendering="geometricPrecision" shape-rendering="geometricPrecision" transform="matrix(1,0,0,1,168.492,283.6229)">
      <g clip-path="url(#clipPath3)">
        <svg xml:space="preserve" opacity="1" writing-mode="lr-tb" stop-color="rgb(0, 0, 0)" shape-rendering="auto" glyph-orientation-horizontal="0deg" color-profile="auto" lighting-color="rgb(255, 255, 255)" color="rgb(0, 0, 0)" font-weight="400" alignment-baseline="auto" font-style="normal" version="1.1" color-interpolation-filters="linearrgb" text-anchor="start" stroke-linecap="butt" color-interpolation="srgb" font-variant="normal" word-spacing="normal" fill-opacity="1" text-rendering="auto" clip-path="none" text-decoration="none" letter-spacing="normal" viewBox="-1 -0.044 71 43" glyph-orientation-vertical="auto" display="inline" font-size-adjust="none" overflow="visible" fill="rgb(0, 0, 0)" font-stretch="normal" stroke-dasharray="none" stroke-miterlimit="4" stop-opacity="1" color-rendering="auto" font-size="12" pointer-events="visiblepainted" mask="none" direction="ltr" baseline-shift="baseline" enable-background="new -1 -0.044 71 43" fill-rule="nonzero" image-rendering="auto" stroke-dashoffset="0" width="71px" marker-end="none" clip="auto" cursor="auto" stroke="none" filter="none" visibility="visible" kerning="auto" stroke-width="1" font-family="&quot;Arial&quot;,&quot;Helvetica&quot;,sans-serif" flood-opacity="1" clip-rule="nonzero" src="none" height="43px" unicode-bidi="normal" stroke-linejoin="miter" stroke-opacity="1" flood-color="rgb(0, 0, 0)" dominant-baseline="auto" marker-start="none" x="0px" marker-mid="none" y="0px">
<defs>
<linearGradient x1="215" gradientUnits="userSpaceOnUse" x2="295" y1="202" y2="252" id="linearGradient1" spreadMethod="reflect">
              <stop stop-opacity="1" stop-color="rgb(232,238,247)" offset="0%"/>
              <stop stop-opacity="1" stop-color="rgb(183,201,227)" offset="100%"/>
            </linearGradient>
            <linearGradient x1="356" gradientUnits="userSpaceOnUse" x2="436" y1="282" y2="332" id="linearGradient2" spreadMethod="reflect">
              <stop stop-opacity="1" stop-color="rgb(232,238,247)" offset="0%"/>
              <stop stop-opacity="1" stop-color="rgb(183,201,227)" offset="100%"/>
            </linearGradient>
            <linearGradient x1="466" gradientUnits="userSpaceOnUse" x2="546" y1="282" y2="332" id="linearGradient3" spreadMethod="reflect">
              <stop stop-opacity="1" stop-color="rgb(232,238,247)" offset="0%"/>
              <stop stop-opacity="1" stop-color="rgb(183,201,227)" offset="100%"/>
            </linearGradient>
            <linearGradient x1="576" gradientUnits="userSpaceOnUse" x2="656" y1="282" y2="332" id="linearGradient4" spreadMethod="reflect">
              <stop stop-opacity="1" stop-color="rgb(232,238,247)" offset="0%"/>
              <stop stop-opacity="1" stop-color="rgb(183,201,227)" offset="100%"/>
            </linearGradient>
            <linearGradient x1="66" gradientUnits="userSpaceOnUse" x2="156" y1="252" y2="292" id="linearGradient5" spreadMethod="reflect">
              <stop stop-opacity="1" stop-color="rgb(232,238,247)" offset="0%"/>
              <stop stop-opacity="1" stop-color="rgb(183,201,227)" offset="100%"/>
            </linearGradient>
            <linearGradient x1="66" gradientUnits="userSpaceOnUse" x2="156" y1="162" y2="202" id="linearGradient6" spreadMethod="reflect">
              <stop stop-opacity="1" stop-color="rgb(232,238,247)" offset="0%"/>
              <stop stop-opacity="1" stop-color="rgb(183,201,227)" offset="100%"/>
            </linearGradient>
            <linearGradient x1="205" gradientUnits="userSpaceOnUse" x2="265" y1="68.5728" y2="108.5728" id="linearGradient7" spreadMethod="reflect">
              <stop stop-opacity="1" stop-color="rgb(232,238,247)" offset="0%"/>
              <stop stop-opacity="1" stop-color="rgb(183,201,227)" offset="100%"/>
            </linearGradient>
            <linearGradient x1="284.4923" gradientUnits="userSpaceOnUse" x2="344.4923" y1="68.5728" y2="108.5728" id="linearGradient8" spreadMethod="reflect">
              <stop stop-opacity="1" stop-color="rgb(232,238,247)" offset="0%"/>
              <stop stop-opacity="1" stop-color="rgb(183,201,227)" offset="100%"/>
            </linearGradient>
            <clipPath clipPathUnits="userSpaceOnUse" id="clipPath1">
              <path d="M0 0 L620 0 L620 364 L0 364 L0 0 Z"/>
            </clipPath>
            <clipPath clipPathUnits="userSpaceOnUse" id="clipPath2">
              <path d="M51 53 L671 53 L671 417 L51 417 L51 53 Z"/>
            </clipPath>
            <clipPath clipPathUnits="userSpaceOnUse" id="clipPath3">
              <path d="M-168.492 -283.6229 L451.508 -283.6229 L451.508 80.3771 L-168.492 80.3771 L-168.492 -283.6229 Z"/>
            </clipPath>
          </defs>
<linearGradient gradientTransform="matrix(1 0 0 1 -760.5996 -1807.4023)" x1="807.2808" x2="783.5425" gradientUnits="userSpaceOnUse" y1="1849.3247" y2="1849.3247" id="svg1.SVGID_1_">
	<stop offset="0" style="stop-color:#4D4D4D"/>
	<stop offset="1" style="stop-color:#999999"/>
</linearGradient>
<path fill="url(#svg1.SVGID_1_)" d="M46.527,40.407c0,0.965-6.758,1.404-12.371,1.404c-3.889,0-10.914-0.349-11.367-1.268  c0,0.446,0,1.502,0,1.661c0,0.726,4.803,1.233,11.357,1.233c6.554,0,12.381-0.643,12.381-1.36  C46.527,41.921,46.527,40.87,46.527,40.407z" display="none"/>
<path fill="#808080" d="M34.658,39.2c6.556,0,11.869,0.584,11.869,1.307c0,0.721-5.313,1.42-11.869,1.42  c-6.701,0-11.869-0.697-11.869-1.42S28.104,39.2,34.658,39.2z" display="none"/>
<linearGradient gradientTransform="matrix(1 0 0 1 -760.5996 -1807.4023)" x1="797.8442" x2="792.8472" gradientUnits="userSpaceOnUse" y1="1843.356" y2="1843.356" id="svg1.SVGID_2_">
	<stop offset="0" style="stop-color:#999999"/>
	<stop offset="0.0417" style="stop-color:#8D8D8D"/>
	<stop offset="0.1617" style="stop-color:#717171"/>
	<stop offset="0.2821" style="stop-color:#5D5D5D"/>
	<stop offset="0.4021" style="stop-color:#515151"/>
	<stop offset="0.5212" style="stop-color:#4D4D4D"/>
	<stop offset="0.6202" style="stop-color:#565656"/>
	<stop offset="0.7817" style="stop-color:#6E6E6E"/>
	<stop offset="0.9844" style="stop-color:#969696"/>
	<stop offset="1" style="stop-color:#999999"/>
</linearGradient>
<path fill="url(#svg1.SVGID_2_)" d="M37.212,40.79c0,0-1.477,0.096-2.498,0.096s-2.499-0.096-2.499-0.096v-9.768h4.997  V40.79z" display="none"/>
<linearGradient y2="42.0806" id="svg1.SVGID_3_" x1="52.1938" gradientUnits="userSpaceOnUse" x2="17.5693" y1="42.0806">
	<stop offset="0" style="stop-color:#999999"/>
	<stop offset="0.0417" style="stop-color:#8D8D8D"/>
	<stop offset="0.1617" style="stop-color:#717171"/>
	<stop offset="0.2821" style="stop-color:#5D5D5D"/>
	<stop offset="0.4021" style="stop-color:#515151"/>
	<stop offset="0.5212" style="stop-color:#4D4D4D"/>
	<stop offset="0.6202" style="stop-color:#565656"/>
	<stop offset="0.7817" style="stop-color:#6E6E6E"/>
	<stop offset="0.9844" style="stop-color:#969696"/>
	<stop offset="1" style="stop-color:#999999"/>
</linearGradient>
<path fill="url(#svg1.SVGID_3_)" d="M51.97,42.018c0,0.516-0.45,0.938-1,0.938H18.345c-0.55,0-1-0.422-1-0.938s0.249-0.813,0.249-0.813  l34.146,0.028C51.74,41.234,51.97,41.502,51.97,42.018z"/>
<linearGradient y2="39.5415" id="svg1.SVGID_4_" x1="52.0024" gradientUnits="userSpaceOnUse" x2="17.7529" y1="39.5415">
	<stop offset="0" style="stop-color:#999999"/>
	<stop offset="0.0417" style="stop-color:#8D8D8D"/>
	<stop offset="0.1617" style="stop-color:#717171"/>
	<stop offset="0.2821" style="stop-color:#5D5D5D"/>
	<stop offset="0.4021" style="stop-color:#515151"/>
	<stop offset="0.5212" style="stop-color:#4D4D4D"/>
	<stop offset="0.6202" style="stop-color:#565656"/>
	<stop offset="0.7817" style="stop-color:#6E6E6E"/>
	<stop offset="0.9844" style="stop-color:#969696"/>
	<stop offset="1" style="stop-color:#999999"/>
</linearGradient>
<path fill="url(#svg1.SVGID_4_)" d="M51.782,41.286h-34.25l2.179-2.714c0.349-0.426,1.083-0.774,1.633-0.774h26.625  c0.55,0,1.285,0.349,1.633,0.774L51.782,41.286z"/>
<linearGradient gradientTransform="matrix(1 0 0 1 -760.5996 -1807.4023)" x1="797.8442" x2="792.8472" gradientUnits="userSpaceOnUse" y1="1842.3892" y2="1842.3892" id="svg1.SVGID_5_">
	<stop offset="0" style="stop-color:#999999"/>
	<stop offset="0.0417" style="stop-color:#8D8D8D"/>
	<stop offset="0.1617" style="stop-color:#717171"/>
	<stop offset="0.2821" style="stop-color:#5D5D5D"/>
	<stop offset="0.4021" style="stop-color:#515151"/>
	<stop offset="0.5212" style="stop-color:#4D4D4D"/>
	<stop offset="0.6202" style="stop-color:#565656"/>
	<stop offset="0.7817" style="stop-color:#6E6E6E"/>
	<stop offset="0.9844" style="stop-color:#969696"/>
	<stop offset="1" style="stop-color:#999999"/>
</linearGradient>
<path fill="url(#svg1.SVGID_5_)" d="M37.212,39.694c0,0-1.478,0.354-2.499,0.354c-1.021,0-2.499-0.354-2.499-0.354v-9.768h4.997V39.694z"/>
<radialGradient gradientTransform="matrix(1.513 0 0 1 -973.8635 -1807.4023)" id="svg1.SVGID_6_" r="24.0778" cx="657.0923" gradientUnits="userSpaceOnUse" cy="1817.3071">
	<stop offset="0" style="stop-color:#F2F2F2"/>
	<stop offset="1" style="stop-color:#666666"/>
</radialGradient>
<path fill="url(#svg1.SVGID_6_)" d="M0.14,2.14c0-1.1,1.184-2,2.631-2h63.474c1.446,0,2.631,0.9,2.631,2v30.073c0,1.101-1.185,2-2.631,2  H2.771c-1.447,0-2.631-0.899-2.631-2V2.14z"/>
<path stroke-linecap="round" fill="none" stroke-linejoin="round" d="  M0.14,2.14c0-1.1,1.184-2,2.631-2h63.474c1.446,0,2.631,0.9,2.631,2v30.073c0,1.101-1.185,2-2.631,2H2.771  c-1.447,0-2.631-0.899-2.631-2V2.14z" stroke="#666666" stroke-width="0.2794" stroke-miterlimit="10"/>
<radialGradient gradientTransform="matrix(1.5073 0 0 1 -921.6763 -1807.4023)" gradientUnits="userSpaceOnUse" r="53.3331" cx="635.0688" id="svg1.SVGID_7_" cy="1809.1597" fx="677.0258" fy="1801.9722">
	<stop offset="0" style="stop-color:#4D4D4D"/>
	<stop offset="1" style="stop-color:#999999"/>
</radialGradient>
<path fill="url(#svg1.SVGID_7_)" d="M2.813,3.161c0-1.1,1.136-2,2.525-2h58.636c1.389,0,2.525,0.9,2.525,2v27.805c0,1.1-1.137,2-2.525,2  H5.339c-1.389,0-2.525-0.9-2.525-2V3.161z"/>
<radialGradient gradientTransform="matrix(1.5102 0 0 1 -924.7913 -1807.4023)" id="svg1.SVGID_8_" r="34.1874" cx="636.0776" gradientUnits="userSpaceOnUse" cy="1809.2437">
	<stop offset="0" style="stop-color:#9CD7FF"/>
	<stop offset="1" style="stop-color:#3C89C9"/>
</radialGradient>
<path fill="url(#svg1.SVGID_8_)" d="M3.439,3.616c0-1.1,1.14-2,2.533-2h57.371c1.394,0,2.532,0.9,2.532,2V30.51c0,1.1-1.139,2-2.532,2  H5.972c-1.393,0-2.533-0.9-2.533-2V3.616z"/>
<path fill="#F2F2F2" d="M3.356,23.653V3.616c0-1.1,1.143-2,2.54-2h57.522  c1.398,0,2.54,0.9,2.54,2v13.539c0,0-17.706,2.838-34.415,4.549C14.834,23.414,3.356,23.653,3.356,23.653z" enable-background="new    " opacity="0.24"/>
</svg>
      </g>
    </g>
    <g text-rendering="geometricPrecision" stroke-miterlimit="1.45" shape-rendering="geometricPrecision" font-family="sans-serif" transform="matrix(1,0,0,1,-51,-53)" stroke-linecap="butt">
      <text x="244.7783" xml:space="preserve" y="397.2245" clip-path="url(#clipPath2)" stroke="none">GUI</text>
    </g>
    <g fill="url(#linearGradient7)" text-rendering="geometricPrecision" shape-rendering="geometricPrecision" transform="matrix(1,0,0,1,-51,-53)" stroke="url(#linearGradient7)">
      <path d="M205 76.5728 C206.8 68.5728 263.2 68.5728 265 76.5728 L265 100.5728 C263.2 108.5728 206.8 108.5728 205 100.5728 Z" stroke="none" clip-path="url(#clipPath2)"/>
    </g>
    <g text-rendering="geometricPrecision" stroke-miterlimit="1.45" shape-rendering="geometricPrecision" transform="matrix(1,0,0,1,-51,-53)" stroke-linecap="butt">
      <path fill="none" d="M205 76.5728 C206.8 68.5728 263.2 68.5728 265 76.5728 L265 100.5728 C263.2 108.5728 206.8 108.5728 205 100.5728 Z" clip-path="url(#clipPath2)"/>
      <path fill="none" d="M265 76.5728 C263.2 84.5728 206.8 84.5728 205 76.5728" clip-path="url(#clipPath2)"/>
      <text x="223.8965" xml:space="preserve" y="93.1079" clip-path="url(#clipPath2)" font-family="sans-serif" stroke="none">BGP</text>
    </g>
    <g fill="url(#linearGradient8)" text-rendering="geometricPrecision" shape-rendering="geometricPrecision" transform="matrix(1,0,0,1,-51,-53)" stroke="url(#linearGradient8)">
      <path d="M284.4923 76.5728 C286.2923 68.5728 342.6923 68.5728 344.4923 76.5728 L344.4923 100.5728 C342.6923 108.5728 286.2923 108.5728 284.4923 100.5728 Z" stroke="none" clip-path="url(#clipPath2)"/>
    </g>
    <g text-rendering="geometricPrecision" stroke-miterlimit="1.45" shape-rendering="geometricPrecision" transform="matrix(1,0,0,1,-51,-53)" stroke-linecap="butt">
      <path fill="none" d="M284.4923 76.5728 C286.2923 68.5728 342.6923 68.5728 344.4923 76.5728 L344.4923 100.5728 C342.6923 108.5728 286.2923 108.5728 284.4923 100.5728 Z" clip-path="url(#clipPath2)"/>
      <path fill="none" d="M344.4923 76.5728 C342.6923 84.5728 286.2923 84.5728 284.4923 76.5728" clip-path="url(#clipPath2)"/>
      <text x="302.4191" xml:space="preserve" y="93.1079" clip-path="url(#clipPath2)" font-family="sans-serif" stroke="none">HSN</text>
    </g>
    <g text-rendering="geometricPrecision" stroke-miterlimit="1.45" shape-rendering="geometricPrecision" transform="matrix(1,0,0,1,-51,-53)" stroke-linecap="butt">
      <path fill="none" d="M288.0264 221.0033 L293.625 220.5195 L305.25 220.5625 L316.25 221.707 L326.625 223.9531 L336.375 227.3008 L345.5 231.75 L354 237.3008 L361.875 243.9531 L369.125 251.707 L375.75 260.5625 L381.75 270.5195 L387.125 281.5781 L388.4164 285.2772" clip-path="url(#clipPath2)"/>
    </g>
    <g stroke-linecap="butt" transform="matrix(1,0,0,1,-51,-53)" fill="white" text-rendering="geometricPrecision" shape-rendering="geometricPrecision" stroke="white" stroke-miterlimit="1.45">
      <rect x="346.8171" width="21.6484" height="18.1328" y="240.7754" clip-path="url(#clipPath2)" stroke="none"/>
      <text x="348.8171" y="254.377" clip-path="url(#clipPath2)" fill="black" font-family="sans-serif" stroke="none" xml:space="preserve">api</text>
      <path fill="none" d="M287.9116 212.376 L295.125 209.5469 L314.25 203.7617 L332.75 199.9375 L350.625 198.0742 L367.875 198.1719 L384.5 200.2305 L400.5 204.25 L415.875 210.2305 L430.625 218.1719 L444.75 228.0742 L458.25 239.9375 L471.125 253.7617 L483.375 269.5469 L494.7957 286.981" clip-path="url(#clipPath2)" stroke="black"/>
      <text x="411.1357" y="227.7378" clip-path="url(#clipPath2)" fill="black" font-family="sans-serif" stroke="none" xml:space="preserve">api</text>
      <path fill="none" d="M285.0321 209.4546 L308.875 197.5156 L334.875 187.0039 L360.25 179.3125 L385 174.4414 L409.125 172.3906 L432.625 173.1602 L455.5 176.75 L477.75 183.1602 L499.375 192.3906 L520.375 204.4414 L540.75 219.3125 L560.5 237.0039 L579.625 257.5156 L598.125 280.8477 L603.2745 288.3818" clip-path="url(#clipPath2)" stroke="black"/>
      <text x="474.0103" y="203.4678" clip-path="url(#clipPath2)" fill="black" font-family="sans-serif" stroke="none" xml:space="preserve">api</text>
      <path fill="none" d="M156.0139 272 L234 272 L234 246.0371" clip-path="url(#clipPath2)" stroke="black"/>
      <path fill="none" d="M156.0139 182 L234 182 L234 208.2793" clip-path="url(#clipPath2)" stroke="black"/>
    </g>
    <g text-rendering="geometricPrecision" stroke-miterlimit="1.45" shape-rendering="geometricPrecision" transform="matrix(1,0,0,1,-51,-53)" stroke-linecap="butt">
      <path fill="none" d="M286.0066 225.5 L286.0066 228.5 L308.0077 228.5 L308.0077 356.6451 L289.5198 356.6451 L289.5198 359.6451 L311.0077 359.6451 L311.0077 358.1451 L311.0077 227 L311.0077 225.5 Z" clip-path="url(#clipPath2)"/>
    </g>
    <g text-rendering="geometricPrecision" stroke-miterlimit="1.45" shape-rendering="geometricPrecision" transform="matrix(1,0,0,1,-51,-53)" stroke-linecap="butt">
      <path fill="none" d="M235 106.5892 L235 159.6664 L252 159.6664 L252 196.3962" clip-path="url(#clipPath2)"/>
      <path d="M252 204.3962 L257 192.3962 L252 195.3962 L247 192.3962 Z" clip-path="url(#clipPath2)" stroke="none"/>
      <path fill="none" d="M314.4923 106.5892 L314.4923 159.6664 L272 159.6664 L272 201.3689" clip-path="url(#clipPath2)"/>
      <path d="M272 209.3689 L277 197.3689 L272 200.3689 L267 197.3689 Z" clip-path="url(#clipPath2)" stroke="none"/>
      <rect x="270.6681" y="132.0864" clip-path="url(#clipPath2)" fill="white" width="87.6484" height="18.1328" stroke="none"/>
      <text x="272.6681" xml:space="preserve" y="145.6879" clip-path="url(#clipPath2)" font-family="sans-serif" stroke="none">authentication</text>
    </g>
  </g>
</svg>
